<?xml version="1.0" standalone="no"?>
<!DOCTYPE svg PUBLIC "-//W3C//DTD SVG 20010904//EN"
 "http://www.w3.org/TR/2001/REC-SVG-20010904/DTD/svg10.dtd">
<svg version="1.0" xmlns="http://www.w3.org/2000/svg"
 width="1935.000000pt" height="1935.000000pt" viewBox="0 0 1935.000000 1935.000000"
 preserveAspectRatio="xMidYMid meet">

<g transform="translate(0.000000,1935.000000) scale(0.100000,-0.100000)"
fill="#000000" stroke="00FFFF">
<path d="M0 9675 l0 -9675 9675 0 9675 0 0 9675 0 9675 -9675 0 -9675 0 0
-9675z m8304 2919 c3 -9 6 -267 6 -574 0 -355 4 -561 10 -565 5 -3 52 8 103
25 128 42 180 51 337 57 295 11 534 -70 724 -247 239 -223 369 -649 336 -1100
-19 -249 -85 -453 -205 -634 -49 -74 -146 -178 -208 -223 -29 -20 -54 -40 -57
-44 -22 -29 -242 -127 -345 -154 -255 -68 -492 -66 -1020 5 -113 15 -310 64
-332 82 -19 15 -19 3270 0 3286 6 5 48 15 92 22 44 6 100 15 125 20 25 5 97
16 160 25 63 9 131 21 150 25 62 14 117 12 124 -6z m3328 -319 c287 -33 507
-86 652 -156 33 -16 63 -29 67 -29 11 0 156 -87 198 -118 303 -227 472 -528
537 -954 21 -137 14 -561 -10 -688 -18 -91 -20 -99 -62 -230 -91 -290 -307
-568 -554 -714 -294 -174 -626 -259 -1075 -272 -304 -10 -858 33 -968 75 l-27
11 0 1499 c0 1205 3 1501 13 1509 18 15 286 50 502 66 255 19 565 19 727 1z
m-10171 -80 c4 -16 12 -57 17 -90 15 -85 41 -231 52 -290 5 -27 17 -88 25
-135 9 -47 25 -128 36 -180 11 -52 23 -117 29 -145 5 -27 16 -86 25 -130 9
-44 21 -105 26 -135 6 -30 19 -91 29 -135 10 -44 24 -107 30 -140 7 -33 18
-85 25 -115 8 -30 19 -82 26 -115 6 -33 31 -139 55 -235 24 -96 44 -182 44
-191 0 -16 37 -56 44 -48 6 6 145 426 180 544 15 50 40 133 56 185 16 52 41
136 55 185 15 50 35 119 46 155 10 36 30 108 44 160 14 52 30 111 35 130 26
90 93 339 99 371 4 19 11 41 15 47 8 14 573 17 592 4 6 -4 30 -74 53 -157 57
-201 66 -233 101 -355 17 -58 35 -121 41 -140 30 -105 51 -173 79 -265 12 -38
25 -83 30 -100 4 -16 20 -68 35 -115 15 -47 31 -98 35 -115 5 -16 24 -79 43
-140 20 -60 52 -161 71 -224 38 -120 64 -181 75 -181 7 0 37 113 81 310 12 52
25 111 30 130 9 37 25 109 60 275 35 166 39 185 65 330 14 77 34 183 44 235
11 52 24 124 31 160 6 36 18 101 26 145 17 89 23 123 54 305 12 69 27 150 33
180 l12 55 358 3 c323 2 357 1 357 -14 0 -9 -7 -46 -15 -83 -8 -36 -28 -131
-45 -211 -30 -141 -53 -248 -70 -320 -5 -19 -13 -57 -19 -85 -10 -49 -56 -242
-107 -455 -14 -58 -37 -150 -51 -205 -14 -55 -29 -116 -33 -135 -8 -37 -90
-349 -137 -520 -8 -30 -18 -68 -23 -85 -4 -16 -15 -57 -25 -90 -9 -33 -20 -73
-25 -90 -4 -16 -15 -52 -24 -80 -26 -82 -58 -188 -66 -220 -12 -47 -90 -298
-99 -320 -4 -11 -19 -54 -32 -95 l-24 -75 -317 -3 c-316 -2 -317 -2 -329 19
-6 12 -15 34 -19 48 -5 14 -25 71 -45 126 -21 55 -41 114 -45 130 -5 17 -31
95 -58 175 -68 198 -164 496 -192 595 -4 17 -40 134 -80 260 -40 127 -76 244
-80 260 -4 17 -15 53 -24 80 -48 142 -50 142 -99 -20 -13 -44 -36 -120 -51
-170 -15 -49 -41 -135 -58 -190 -17 -55 -41 -134 -53 -175 -45 -151 -87 -287
-110 -355 -12 -38 -35 -110 -49 -160 -15 -49 -36 -112 -47 -139 -10 -27 -19
-55 -19 -62 0 -8 -4 -22 -9 -32 -6 -9 -26 -64 -45 -122 -20 -58 -49 -141 -65
-185 l-28 -80 -315 -3 c-245 -2 -317 1 -325 10 -5 7 -27 67 -47 133 -21 66
-45 140 -53 165 -18 55 -82 263 -93 305 -4 17 -20 71 -35 120 -15 50 -31 104
-35 120 -5 17 -17 62 -28 100 -11 39 -29 106 -41 150 -13 44 -29 105 -38 135
-8 30 -18 71 -23 90 -4 19 -24 98 -45 175 -21 77 -41 160 -46 185 -5 25 -14
59 -19 75 -6 17 -17 60 -24 95 -17 73 -43 187 -86 365 -16 66 -31 131 -33 145
-3 14 -12 57 -21 95 -73 323 -126 578 -126 613 0 10 78 12 372 10 l372 -3 7
-30z m4799 -670 c422 -74 688 -314 809 -730 35 -118 53 -351 44 -552 l-6 -133
-741 0 c-408 0 -747 -4 -755 -9 -36 -23 30 -181 110 -262 121 -121 285 -174
539 -174 195 0 381 28 549 82 41 13 77 20 81 16 9 -9 50 -250 79 -457 11 -84
12 -83 -104 -120 -346 -109 -833 -131 -1130 -50 -27 7 -61 16 -75 20 -14 3
-75 30 -136 60 -253 121 -406 283 -521 554 -25 58 -69 252 -83 361 -31 256 12
542 116 766 154 335 442 557 819 630 79 16 310 14 405 -2z m8622 -1 c94 -16
265 -67 282 -85 6 -5 16 -9 23 -9 17 0 144 -82 191 -123 73 -64 192 -201 192
-222 0 -3 10 -22 23 -43 45 -71 99 -225 119 -337 25 -145 35 -383 21 -527 l-6
-68 -742 0 c-835 0 -779 5 -755 -73 47 -157 168 -278 330 -330 137 -44 354
-55 560 -28 98 13 291 57 354 81 15 5 31 8 36 5 4 -2 15 -49 24 -102 9 -54 21
-120 26 -148 5 -27 11 -66 13 -85 3 -19 10 -70 17 -113 8 -49 9 -82 3 -88 -19
-19 -189 -73 -283 -90 -464 -81 -800 -70 -1074 35 -267 102 -460 278 -579 527
-65 136 -97 264 -117 469 -11 109 -11 147 4 280 9 85 21 173 27 195 27 99 35
124 60 186 59 147 100 215 194 329 155 186 386 318 640 365 102 18 308 18 417
-1z m1822 -61 c5 -20 41 -148 56 -203 22 -80 63 -219 79 -270 10 -30 30 -93
44 -140 70 -227 120 -387 127 -405 4 -11 22 -63 38 -115 17 -52 47 -140 67
-195 20 -55 39 -110 42 -123 11 -47 56 -36 66 16 3 15 21 72 41 127 55 150
159 466 232 705 14 47 38 126 53 175 16 50 41 135 56 190 15 55 36 127 46 159
11 33 19 68 19 78 0 17 19 18 346 18 l345 0 -6 -22 c-51 -181 -255 -794 -330
-993 -15 -38 -36 -95 -47 -125 -40 -111 -191 -485 -199 -494 -5 -6 -9 -16 -9
-22 0 -7 -13 -41 -29 -76 -16 -35 -39 -85 -51 -113 -87 -198 -212 -458 -232
-482 -8 -10 -77 -13 -284 -13 l-274 0 -90 185 c-50 101 -90 187 -90 189 0 3
-13 34 -29 68 -59 129 -71 158 -151 353 -75 180 -111 272 -187 475 -72 192
-227 648 -287 845 -16 50 -37 115 -47 146 -10 30 -19 61 -19 67 0 9 87 12 349
12 324 0 350 -1 355 -17z"/>
<path d="M8530 10978 c-64 -13 -171 -49 -197 -66 l-23 -14 0 -604 0 -603 43
-12 c60 -17 330 -17 392 0 176 47 295 167 363 366 39 115 49 393 19 543 -45
221 -149 346 -327 388 -62 15 -203 16 -270 2z"/>
<path d="M11113 11670 l-23 -9 0 -965 c0 -870 2 -964 16 -970 33 -13 404 -6
502 9 259 41 442 136 568 295 24 30 48 60 53 66 26 32 102 210 122 284 19 71
23 118 27 293 5 255 -9 347 -77 517 -87 216 -277 380 -511 441 -142 37 -251
49 -450 48 -113 0 -215 -4 -227 -9z"/>
<path d="M5919 10975 c-157 -43 -268 -161 -308 -328 -20 -82 -45 -78 433 -75
l421 3 3 34 c4 42 -13 110 -44 172 -43 87 -146 168 -248 195 -63 17 -195 17
-257 -1z"/>
<path d="M14539 10976 c-66 -19 -143 -63 -190 -110 -67 -66 -143 -252 -117
-283 8 -10 97 -13 428 -13 370 0 419 2 431 16 11 13 10 28 -5 86 -10 39 -30
93 -44 120 -43 83 -140 155 -247 184 -62 17 -194 17 -256 0z"/>
</g>
</svg>
